{
  "source": "C:\\Users\\Peter\\Desktop\\stuff\\MIUN\\quantitative_research\\video_compression\\videos\\BVI-HD\\BVI-HD_CDVL_videos\\ORIG\\ParkPlay_1920x1080_50fps.mp4",
  "output": "C:\\Users\\Peter\\Desktop\\stuff\\MIUN\\quantitative_research\\video_compression\\compressed_videos\\BVI-HD\\h264\\4\\ParkPlay_1920x1080_50fps_h264.mp4",
  "codec": "h264",
  "ok": "Input #0, mov,mp4,m4a,3gp,3g2,mj2, from 'C:\\Users\\Peter\\Desktop\\stuff\\MIUN\\quantitative_research\\video_compression\\videos\\BVI-HD\\BVI-HD_CDVL_videos\\ORIG\\ParkPlay_1920x1080_50fps.mp4':\n  Metadata:\n    major_brand     : isom\n    minor_version   : 512\n    compatible_brands: isomiso2avc1mp41\n    encoder         : Lavf54.28.101\n  Duration: 00:00:05.00, start: 0.000000, bitrate: 620563 kb/s\n  Stream #0:0[0x1](und): Video: h264 (High 4:4:4 Predictive) (avc1 / 0x31637661), yuv420p(progressive), 1920x1080, 620558 kb/s, 50 fps, 50 tbr, 50 tbn (default)\n    Metadata:\n      handler_name    : VideoHandler\n      vendor_id       : [0][0][0][0]\n[out#0/mp4 @ 00000176f6c69980] Codec AVOption b:a (set bitrate (in bits/s)) has not been used for any stream. The most likely reason is either wrong type (e.g. a video option with no video streams) or that it is a private option of some decoder which was not actually used for any stream.\nStream mapping:\n  Stream #0:0 -> #0:0 (h264 (native) -> h264 (libx264))\nPress [q] to stop, [?] for help\n[libx264 @ 00000176f72159c0] using cpu capabilities: MMX2 SSE2Fast SSSE3 SSE4.2 AVX FMA3 BMI2 AVX2\n[libx264 @ 00000176f72159c0] profile High, level 5.0, 4:2:0, 8-bit\n[libx264 @ 00000176f72159c0] 264 - core 165 r3222 b35605a - H.264/MPEG-4 AVC codec - Copyleft 2003-2025 - http://www.videolan.org/x264.html - options: cabac=1 ref=5 deblock=1:0:0 analyse=0x3:0x113 me=hex subme=8 psy=1 psy_rd=1.00:0.00 mixed_ref=1 me_range=16 chroma_me=1 trellis=2 8x8dct=1 cqm=0 deadzone=21,11 fast_pskip=1 chroma_qp_offset=-2 threads=18 lookahead_threads=3 sliced_threads=0 nr=0 decimate=1 interlaced=0 bluray_compat=0 constrained_intra=0 bframes=3 b_pyramid=2 b_adapt=1 b_bias=0 direct=3 weightb=1 open_gop=0 weightp=2 keyint=250 keyint_min=25 scenecut=40 intra_refresh=0 rc_lookahead=50 rc=cbr mbtree=1 bitrate=4000 ratetol=1.0 qcomp=0.60 qpmin=0 qpmax=69 qpstep=4 vbv_maxrate=4000 vbv_bufsize=4000 nal_hrd=none filler=0 ip_ratio=1.40 aq=1:1.00\nOutput #0, mp4, to 'C:\\Users\\Peter\\Desktop\\stuff\\MIUN\\quantitative_research\\video_compression\\compressed_videos\\BVI-HD\\h264\\4\\ParkPlay_1920x1080_50fps_h264.mp4':\n  Metadata:\n    major_brand     : isom\n    minor_version   : 512\n    compatible_brands: isomiso2avc1mp41\n    encoder         : Lavf62.3.100\n  Stream #0:0(und): Video: h264 (avc1 / 0x31637661), yuv420p(tv, progressive), 1920x1080, q=2-31, 4000 kb/s, 50 fps, 12800 tbn (default)\n    Metadata:\n      encoder         : Lavc62.11.100 libx264\n      handler_name    : VideoHandler\n      vendor_id       : [0][0][0][0]\n    Side data:\n      cpb: bitrate max/min/avg: 4000000/0/4000000 buffer size: 4000000 vbv_delay: N/A\nframe=    0 fps=0.0 q=0.0 size=       0KiB time=N/A bitrate=N/A speed=N/A elapsed=0:00:00.53    \nframe=    0 fps=0.0 q=0.0 size=       0KiB time=N/A bitrate=N/A speed=N/A elapsed=0:00:01.07    \nframe=    0 fps=0.0 q=0.0 size=       0KiB time=N/A bitrate=N/A speed=N/A elapsed=0:00:01.62    \nframe=    0 fps=0.0 q=0.0 size=       0KiB time=N/A bitrate=N/A speed=N/A elapsed=0:00:02.20    \nframe=   13 fps=4.7 q=41.0 size=       0KiB time=00:00:00.14 bitrate=   2.7kbits/s speed=0.0503x elapsed=0:00:02.78    \nframe=   32 fps=9.3 q=41.0 size=     256KiB time=00:00:00.44 bitrate=4767.1kbits/s speed=0.128x elapsed=0:00:03.43    \nframe=   45 fps= 11 q=41.0 size=     256KiB time=00:00:00.86 bitrate=2439.0kbits/s speed=0.209x elapsed=0:00:04.10    \nframe=   65 fps= 14 q=41.0 size=     512KiB time=00:00:01.18 bitrate=3554.8kbits/s speed=0.247x elapsed=0:00:04.76    \nframe=   81 fps= 15 q=41.0 size=     512KiB time=00:00:01.50 bitrate=2796.5kbits/s speed=0.277x elapsed=0:00:05.41    \nframe=  101 fps= 17 q=41.0 size=     768KiB time=00:00:01.90 bitrate=3311.5kbits/s speed=0.314x elapsed=0:00:06.04    \nframe=  120 fps= 18 q=40.0 size=    1024KiB time=00:00:02.36 bitrate=3554.7kbits/s speed=0.353x elapsed=0:00:06.68    \nframe=  141 fps= 19 q=41.0 size=    1024KiB time=00:00:02.70 bitrate=3107.0kbits/s speed=0.37x elapsed=0:00:07.29    \nframe=  149 fps= 19 q=40.0 size=    1280KiB time=00:00:02.94 bitrate=3566.7kbits/s speed=0.367x elapsed=0:00:08.01    \nframe=  172 fps= 20 q=40.0 size=    1536KiB time=00:00:03.34 bitrate=3767.5kbits/s speed=0.387x elapsed=0:00:08.63    \nframe=  190 fps= 21 q=40.0 size=    1536KiB time=00:00:03.66 bitrate=3438.1kbits/s speed=0.396x elapsed=0:00:09.25    \nframe=  206 fps= 21 q=40.0 size=    1792KiB time=00:00:04.08 bitrate=3598.1kbits/s speed=0.416x elapsed=0:00:09.81    \nframe=  229 fps= 22 q=37.0 size=    2048KiB time=00:00:04.50 bitrate=3728.4kbits/s speed=0.435x elapsed=0:00:10.35    \nframe=  245 fps= 23 q=-1.0 size=    2048KiB time=00:00:04.82 bitrate=3480.8kbits/s speed=0.443x elapsed=0:00:10.88    \n[mp4 @ 00000176f6c69a80] Starting second pass: moving the moov atom to the beginning of the file\n[out#0/mp4 @ 00000176f6c69980] video:2245KiB audio:0KiB subtitle:0KiB other streams:0KiB global headers:0KiB muxing overhead: 0.169224%\nframe=  250 fps= 23 q=-1.0 Lsize=    2249KiB time=00:00:04.96 bitrate=3714.9kbits/s speed=0.453x elapsed=0:00:10.95    \n[libx264 @ 00000176f72159c0] frame I:1     Avg QP:37.58  size: 55928\n[libx264 @ 00000176f72159c0] frame P:63    Avg QP:39.70  size: 20381\n[libx264 @ 00000176f72159c0] frame B:186   Avg QP:43.19  size:  5154\n[libx264 @ 00000176f72159c0] consecutive B-frames:  0.8%  0.0%  0.0% 99.2%\n[libx264 @ 00000176f72159c0] mb I  I16..4: 37.0% 55.6%  7.4%\n[libx264 @ 00000176f72159c0] mb P  I16..4:  3.7%  5.7%  0.3%  P16..4: 37.8%  7.4%  6.6%  0.0%  0.0%    skip:38.5%\n[libx264 @ 00000176f72159c0] mb B  I16..4:  0.1%  0.2%  0.0%  B16..8: 46.5%  1.5%  0.2%  direct: 0.4%  skip:51.1%  L0:42.3% L1:57.0% BI: 0.8%\n[libx264 @ 00000176f72159c0] 8x8 transform intra:59.0% inter:72.8%\n[libx264 @ 00000176f72159c0] direct mvs  spatial:94.6% temporal:5.4%\n[libx264 @ 00000176f72159c0] coded y,uvDC,uvAC intra: 33.4% 43.2% 9.7% inter: 3.8% 5.0% 0.1%\n[libx264 @ 00000176f72159c0] i16 v,h,dc,p: 20% 24%  6% 49%\n[libx264 @ 00000176f72159c0] i8 v,h,dc,ddl,ddr,vr,hd,vl,hu:  4%  4%  5% 14% 20% 13% 18% 11% 13%\n[libx264 @ 00000176f72159c0] i4 v,h,dc,ddl,ddr,vr,hd,vl,hu:  3%  4%  3% 14% 20% 12% 19%  9% 17%\n[libx264 @ 00000176f72159c0] i8c dc,h,v,p: 51% 21% 13% 15%\n[libx264 @ 00000176f72159c0] Weighted P-Frames: Y:1.6% UV:1.6%\n[libx264 @ 00000176f72159c0] ref P L0: 65.4%  8.9% 16.1%  4.5%  5.0%  0.1%\n[libx264 @ 00000176f72159c0] ref B L0: 93.6%  4.9%  1.1%  0.4%\n[libx264 @ 00000176f72159c0] ref B L1: 98.3%  1.7%\n[libx264 @ 00000176f72159c0] kb/s:3677.69\n",
  "seconds": 11.4755277633667,
  "probe_out": {}
}